<?xml version="1.0" standalone="no"?>
<!DOCTYPE svg PUBLIC "-//W3C//DTD SVG 20010904//EN"
 "http://www.w3.org/TR/2001/REC-SVG-20010904/DTD/svg10.dtd">
<svg version="1.0" xmlns="http://www.w3.org/2000/svg"
 width="512.000000pt" height="512.000000pt" viewBox="0 0 512.000000 512.000000"
 preserveAspectRatio="xMidYMid meet">
<metadata>
Created by potrace 1.14, written by Peter Selinger 2001-2017
</metadata>
<g transform="translate(0.000000,512.000000) scale(0.100000,-0.100000)"
fill="#000000" stroke="none">
<path d="M2409 5001 c-125 -129 -248 -285 -324 -413 l-47 -78 -101 54 c-122
65 -285 133 -422 175 -234 71 -249 68 -289 -64 -53 -174 -88 -410 -90 -607 -1
-62 -4 -78 -16 -79 -167 -6 -292 -15 -335 -24 -11 -3 -37 -7 -58 -10 -79 -11
-195 -37 -278 -61 -71 -22 -89 -31 -103 -55 -16 -28 -16 -34 -1 -100 38 -169
125 -398 215 -565 36 -68 46 -94 37 -103 -6 -6 -15 -11 -19 -11 -13 0 -148
-89 -247 -164 -52 -39 -148 -123 -213 -186 -153 -149 -153 -148 -31 -272 133
-134 306 -270 460 -362 l62 -37 -58 -112 c-86 -163 -184 -423 -207 -547 -3
-14 -7 -33 -10 -43 -8 -26 13 -72 39 -85 22 -12 178 -55 232 -66 33 -6 59 -11
150 -26 86 -14 218 -26 303 -25 39 0 72 -2 73 -5 0 -3 2 -56 5 -119 7 -196 64
-519 110 -623 17 -39 54 -61 91 -54 161 32 376 110 560 202 l142 72 50 -83
c83 -135 196 -279 314 -401 94 -96 118 -116 149 -121 35 -5 41 -2 104 58 135
129 291 324 388 487 21 35 41 62 45 60 3 -2 37 -20 74 -42 156 -88 442 -195
622 -232 11 -2 32 1 46 7 36 14 48 40 81 174 45 182 66 327 73 505 2 47 4 92
4 100 1 12 22 15 113 17 95 2 250 18 363 39 70 12 267 65 285 77 37 22 42 65
20 152 -48 184 -124 382 -210 541 l-50 92 99 61 c132 81 295 211 415 332 96
97 98 101 93 137 -5 30 -24 54 -104 132 -99 96 -158 148 -209 185 -15 11 -32
25 -38 31 -19 17 -214 144 -223 144 -5 0 -14 5 -20 11 -10 10 14 68 67 159 53
91 152 363 185 507 23 100 11 121 -82 150 -72 23 -200 52 -302 69 -18 3 -43 7
-55 10 -30 6 -157 16 -251 19 -44 2 -84 4 -90 4 -6 1 -10 33 -11 74 0 74 -14
268 -19 277 -2 3 -6 25 -9 50 -13 97 -59 292 -82 346 -22 52 -57 60 -156 34
-208 -54 -438 -146 -598 -240 -32 -19 -36 -19 -45 -4 -39 62 -150 230 -155
234 -3 3 -28 33 -54 68 -26 35 -96 113 -155 173 -90 94 -112 111 -145 116 -39
6 -39 6 -157 -116z m205 -128 c75 -81 96 -105 165 -198 132 -177 219 -337 276
-507 46 -141 62 -235 61 -364 l-1 -110 -40 -35 c-89 -77 -233 -243 -273 -315
-8 -14 -16 -14 -88 -1 -101 19 -213 19 -311 -1 -49 -10 -78 -11 -80 -5 -10 29
-135 180 -223 270 l-100 101 4 130 c2 72 6 134 9 139 3 4 8 26 11 48 19 116
107 326 207 490 86 142 296 402 326 404 6 1 32 -20 57 -46z m-1129 -294 c129
-39 299 -112 413 -178 59 -33 73 -54 54 -76 -10 -11 -67 -184 -76 -225 -2 -14
-9 -47 -15 -75 -5 -27 -12 -86 -16 -130 -4 -44 -8 -81 -9 -83 -2 -1 -23 9 -47
22 -103 56 -248 100 -475 142 -19 3 -20 10 -18 86 5 153 12 223 46 403 24 126
32 148 56 141 9 -3 49 -15 87 -27z m2268 4 c32 -144 47 -234 57 -323 14 -139
19 -265 11 -277 -3 -6 -31 -13 -61 -16 -118 -13 -331 -80 -436 -136 -21 -11
-39 -19 -40 -18 -1 1 -6 38 -9 82 -4 44 -11 103 -17 130 -5 28 -11 61 -14 75
-3 14 -23 78 -45 143 -38 113 -39 120 -22 133 42 31 267 136 383 177 184 66
185 66 193 30z m-2478 -768 c372 -40 647 -199 867 -500 l36 -51 -56 -36 c-151
-98 -277 -266 -328 -437 l-14 -48 -80 -7 c-110 -9 -230 -33 -324 -63 l-78 -26
-64 34 c-251 132 -475 407 -623 762 -38 91 -101 276 -101 296 0 5 12 11 28 14
15 3 59 12 98 21 39 8 88 18 110 21 21 4 50 8 64 11 14 2 66 7 115 10 50 4 91
8 93 9 4 3 205 -4 257 -10z m2945 0 c113 -10 372 -57 388 -71 7 -5 -60 -208
-100 -303 -66 -155 -173 -344 -244 -431 -137 -168 -253 -265 -409 -344 -129
-65 -259 -100 -437 -121 l-58 -7 -1 39 c-4 256 -139 500 -356 647 l-62 42 61
80 c110 144 262 275 401 345 75 38 247 96 312 105 28 3 53 8 56 10 4 2 44 7
90 10 46 4 85 8 87 9 4 4 190 -3 272 -10z m-1530 -628 c204 -50 368 -180 447
-354 47 -102 62 -177 59 -293 -5 -173 -63 -306 -186 -430 -122 -122 -259 -181
-425 -186 -126 -3 -205 14 -313 67 -146 73 -261 206 -320 371 -23 64 -26 88
-26 198 0 102 4 137 23 190 95 281 340 455 626 445 55 -2 107 -5 115 -8z
m-1920 -324 c75 -91 206 -211 285 -261 30 -19 55 -39 55 -43 0 -5 -14 -16 -30
-24 -78 -40 -233 -182 -331 -302 -23 -29 -47 -53 -52 -53 -15 0 -150 85 -232
146 -102 75 -142 109 -211 174 l-62 58 37 39 c44 46 175 155 250 209 77 55
204 134 217 134 5 0 39 -35 74 -77z m3739 30 c131 -80 286 -201 392 -306 l29
-28 -56 -52 c-31 -29 -66 -60 -78 -70 -11 -10 -31 -27 -43 -38 -78 -66 -308
-219 -330 -219 -6 0 -27 21 -47 48 -83 106 -238 249 -331 303 -19 12 -35 24
-35 28 0 4 30 27 67 51 80 53 212 177 284 266 29 35 57 64 62 64 6 0 44 -21
86 -47z m-2748 -355 c0 -24 2 -52 4 -63 2 -11 6 -38 10 -60 18 -123 99 -291
185 -384 55 -59 54 -55 27 -108 -41 -78 -78 -180 -109 -302 -15 -63 -29 -115
-31 -116 -1 -1 -25 -15 -52 -33 -293 -183 -732 -225 -1212 -115 -40 9 -73 21
-73 25 0 32 101 301 152 405 187 383 404 598 726 719 60 23 215 60 277 66 102
10 95 13 96 -34z m2129 -100 c251 -137 461 -394 613 -749 39 -90 107 -288 107
-310 0 -4 -12 -9 -27 -12 -16 -4 -60 -13 -99 -21 -39 -9 -88 -18 -110 -21 -21
-4 -50 -8 -64 -10 -109 -18 -309 -23 -445 -11 -157 14 -342 64 -462 125 -140
71 -295 205 -405 351 l-56 74 56 37 c145 95 275 267 323 427 7 23 17 46 23 51
6 5 43 11 81 14 97 9 216 33 305 61 41 14 81 25 87 25 7 1 40 -14 73 -31z
m-1565 -641 c134 -39 258 -45 386 -21 41 8 76 14 79 14 3 0 14 -14 24 -32 22
-36 24 -39 102 -133 60 -71 89 -101 162 -167 l41 -37 -4 -128 c-4 -132 -5
-147 -31 -246 -67 -260 -243 -561 -466 -794 -27 -29 -53 -53 -58 -53 -5 0 -31
24 -58 53 -207 217 -370 482 -445 724 -88 279 -68 560 58 842 l27 59 61 -32
c34 -18 89 -40 122 -49z m-484 -519 c0 -18 2 -42 4 -53 1 -11 6 -45 9 -75 10
-92 34 -185 77 -304 16 -44 29 -83 29 -87 0 -4 -12 -14 -27 -22 -16 -8 -59
-31 -98 -52 -116 -62 -410 -175 -454 -175 -5 0 -12 17 -17 38 -4 20 -8 39 -9
42 -1 4 -10 45 -22 105 -2 11 -6 38 -9 60 -3 22 -7 46 -9 52 -6 18 -18 196
-19 272 -1 61 1 64 24 67 149 21 338 76 440 128 36 18 68 34 73 34 4 1 7 -13
8 -30z m1481 13 c89 -53 350 -132 468 -143 l35 -3 -1 -70 c0 -74 -11 -217 -20
-275 -12 -77 -54 -283 -58 -287 -16 -16 -346 109 -483 183 -119 65 -114 57
-84 125 49 111 98 332 100 457 1 17 3 32 5 32 3 0 20 -9 38 -19z"/>
</g>
</svg>
